<mxfile host="app.diagrams.net" modified="2024-05-24T08:29:18.055Z" agent="Mozilla/5.0 (Windows NT 10.0; Win64; x64) AppleWebKit/537.36 (KHTML, like Gecko) Chrome/125.0.0.0 Safari/537.36" etag="38QhSdhGsKXtFWxfrCvt" version="24.2.5" type="device">
  <diagram name="Pagina-1" id="B65uexvm9-t-M-whPtmd">
    <mxGraphModel dx="2261" dy="780" grid="1" gridSize="10" guides="1" tooltips="1" connect="1" arrows="1" fold="1" page="1" pageScale="1" pageWidth="827" pageHeight="1169" math="0" shadow="0">
      <root>
        <mxCell id="0" />
        <mxCell id="1" parent="0" />
        <mxCell id="U3oZ_wG4K5lFRN-svRRU-1" value="RDBMS" style="shape=cylinder3;whiteSpace=wrap;html=1;boundedLbl=1;backgroundOutline=1;size=15;fillColor=#d5e8d4;strokeColor=#82b366;" vertex="1" parent="1">
          <mxGeometry x="330" y="950" width="150" height="190" as="geometry" />
        </mxCell>
        <mxCell id="U3oZ_wG4K5lFRN-svRRU-2" value="" style="endArrow=none;dashed=1;html=1;dashPattern=1 3;strokeWidth=2;rounded=0;" edge="1" parent="1">
          <mxGeometry width="50" height="50" relative="1" as="geometry">
            <mxPoint y="910" as="sourcePoint" />
            <mxPoint x="820" y="910" as="targetPoint" />
          </mxGeometry>
        </mxCell>
        <mxCell id="U3oZ_wG4K5lFRN-svRRU-4" value="" style="sketch=0;outlineConnect=0;fontColor=#232F3E;gradientColor=none;fillColor=#7AA116;strokeColor=none;dashed=0;verticalLabelPosition=bottom;verticalAlign=top;align=center;html=1;fontSize=12;fontStyle=0;aspect=fixed;pointerEvents=1;shape=mxgraph.aws4.file_system;" vertex="1" parent="1">
          <mxGeometry x="520" y="970" width="85.48" height="80" as="geometry" />
        </mxCell>
        <mxCell id="U3oZ_wG4K5lFRN-svRRU-5" value="file system" style="text;html=1;align=center;verticalAlign=middle;resizable=0;points=[];autosize=1;strokeColor=none;fillColor=none;" vertex="1" parent="1">
          <mxGeometry x="530" y="1050" width="80" height="30" as="geometry" />
        </mxCell>
        <mxCell id="U3oZ_wG4K5lFRN-svRRU-6" value="Parte piÃ¹ interna e che deve essere meno accessibile:&lt;div&gt;non bisogna perdere i dati in nessun modo&lt;/div&gt;" style="text;html=1;align=center;verticalAlign=middle;resizable=0;points=[];autosize=1;strokeColor=none;fillColor=none;" vertex="1" parent="1">
          <mxGeometry y="970" width="310" height="40" as="geometry" />
        </mxCell>
        <mxCell id="U3oZ_wG4K5lFRN-svRRU-7" value="" style="endArrow=none;dashed=1;html=1;dashPattern=1 3;strokeWidth=2;rounded=0;" edge="1" parent="1">
          <mxGeometry width="50" height="50" relative="1" as="geometry">
            <mxPoint x="4" y="710" as="sourcePoint" />
            <mxPoint x="824" y="710" as="targetPoint" />
          </mxGeometry>
        </mxCell>
        <mxCell id="U3oZ_wG4K5lFRN-svRRU-8" value="&lt;b&gt;ACCESSO AL DB (data access layer)&lt;/b&gt;" style="text;html=1;align=center;verticalAlign=middle;resizable=0;points=[];autosize=1;strokeColor=#6c8ebf;fillColor=#dae8fc;" vertex="1" parent="1">
          <mxGeometry x="595" y="870" width="230" height="30" as="geometry" />
        </mxCell>
        <mxCell id="U3oZ_wG4K5lFRN-svRRU-9" value="&lt;b&gt;&lt;font style=&quot;font-size: 21px;&quot;&gt;DB&amp;nbsp;&lt;/font&gt;&lt;/b&gt;" style="text;html=1;align=center;verticalAlign=middle;resizable=0;points=[];autosize=1;strokeColor=#82b366;fillColor=#d5e8d4;" vertex="1" parent="1">
          <mxGeometry x="98.8" y="920" width="60" height="40" as="geometry" />
        </mxCell>
        <mxCell id="U3oZ_wG4K5lFRN-svRRU-10" value="Connessione" style="swimlane;fontStyle=1;align=center;verticalAlign=top;childLayout=stackLayout;horizontal=1;startSize=26;horizontalStack=0;resizeParent=1;resizeParentMax=0;resizeLast=0;collapsible=1;marginBottom=0;whiteSpace=wrap;html=1;fillColor=#dae8fc;strokeColor=#6c8ebf;" vertex="1" parent="1">
          <mxGeometry x="200" y="748" width="160" height="86" as="geometry" />
        </mxCell>
        <mxCell id="U3oZ_wG4K5lFRN-svRRU-11" value="+ field: type" style="text;strokeColor=none;fillColor=none;align=left;verticalAlign=top;spacingLeft=4;spacingRight=4;overflow=hidden;rotatable=0;points=[[0,0.5],[1,0.5]];portConstraint=eastwest;whiteSpace=wrap;html=1;" vertex="1" parent="U3oZ_wG4K5lFRN-svRRU-10">
          <mxGeometry y="26" width="160" height="26" as="geometry" />
        </mxCell>
        <mxCell id="U3oZ_wG4K5lFRN-svRRU-12" value="" style="line;strokeWidth=1;fillColor=none;align=left;verticalAlign=middle;spacingTop=-1;spacingLeft=3;spacingRight=3;rotatable=0;labelPosition=right;points=[];portConstraint=eastwest;strokeColor=inherit;" vertex="1" parent="U3oZ_wG4K5lFRN-svRRU-10">
          <mxGeometry y="52" width="160" height="8" as="geometry" />
        </mxCell>
        <mxCell id="U3oZ_wG4K5lFRN-svRRU-13" value="+ method(type): type" style="text;strokeColor=none;fillColor=none;align=left;verticalAlign=top;spacingLeft=4;spacingRight=4;overflow=hidden;rotatable=0;points=[[0,0.5],[1,0.5]];portConstraint=eastwest;whiteSpace=wrap;html=1;" vertex="1" parent="U3oZ_wG4K5lFRN-svRRU-10">
          <mxGeometry y="60" width="160" height="26" as="geometry" />
        </mxCell>
        <mxCell id="U3oZ_wG4K5lFRN-svRRU-15" value="DAO" style="swimlane;fontStyle=1;align=center;verticalAlign=top;childLayout=stackLayout;horizontal=1;startSize=26;horizontalStack=0;resizeParent=1;resizeParentMax=0;resizeLast=0;collapsible=1;marginBottom=0;whiteSpace=wrap;html=1;fillColor=#dae8fc;strokeColor=#6c8ebf;" vertex="1" parent="1">
          <mxGeometry x="410" y="748" width="160" height="86" as="geometry" />
        </mxCell>
        <mxCell id="U3oZ_wG4K5lFRN-svRRU-16" value="+ field: type" style="text;strokeColor=none;fillColor=none;align=left;verticalAlign=top;spacingLeft=4;spacingRight=4;overflow=hidden;rotatable=0;points=[[0,0.5],[1,0.5]];portConstraint=eastwest;whiteSpace=wrap;html=1;" vertex="1" parent="U3oZ_wG4K5lFRN-svRRU-15">
          <mxGeometry y="26" width="160" height="26" as="geometry" />
        </mxCell>
        <mxCell id="U3oZ_wG4K5lFRN-svRRU-17" value="" style="line;strokeWidth=1;fillColor=none;align=left;verticalAlign=middle;spacingTop=-1;spacingLeft=3;spacingRight=3;rotatable=0;labelPosition=right;points=[];portConstraint=eastwest;strokeColor=inherit;" vertex="1" parent="U3oZ_wG4K5lFRN-svRRU-15">
          <mxGeometry y="52" width="160" height="8" as="geometry" />
        </mxCell>
        <mxCell id="U3oZ_wG4K5lFRN-svRRU-18" value="+ method(type): type" style="text;strokeColor=none;fillColor=none;align=left;verticalAlign=top;spacingLeft=4;spacingRight=4;overflow=hidden;rotatable=0;points=[[0,0.5],[1,0.5]];portConstraint=eastwest;whiteSpace=wrap;html=1;" vertex="1" parent="U3oZ_wG4K5lFRN-svRRU-15">
          <mxGeometry y="60" width="160" height="26" as="geometry" />
        </mxCell>
        <mxCell id="U3oZ_wG4K5lFRN-svRRU-19" value="I-DAO" style="swimlane;fontStyle=1;align=center;verticalAlign=top;childLayout=stackLayout;horizontal=1;startSize=26;horizontalStack=0;resizeParent=1;resizeParentMax=0;resizeLast=0;collapsible=1;marginBottom=0;whiteSpace=wrap;html=1;fillColor=#dae8fc;strokeColor=#6c8ebf;" vertex="1" parent="1">
          <mxGeometry x="630" y="750" width="160" height="86" as="geometry" />
        </mxCell>
        <mxCell id="U3oZ_wG4K5lFRN-svRRU-20" value="+ field: type" style="text;strokeColor=none;fillColor=none;align=left;verticalAlign=top;spacingLeft=4;spacingRight=4;overflow=hidden;rotatable=0;points=[[0,0.5],[1,0.5]];portConstraint=eastwest;whiteSpace=wrap;html=1;" vertex="1" parent="U3oZ_wG4K5lFRN-svRRU-19">
          <mxGeometry y="26" width="160" height="26" as="geometry" />
        </mxCell>
        <mxCell id="U3oZ_wG4K5lFRN-svRRU-21" value="" style="line;strokeWidth=1;fillColor=none;align=left;verticalAlign=middle;spacingTop=-1;spacingLeft=3;spacingRight=3;rotatable=0;labelPosition=right;points=[];portConstraint=eastwest;strokeColor=inherit;" vertex="1" parent="U3oZ_wG4K5lFRN-svRRU-19">
          <mxGeometry y="52" width="160" height="8" as="geometry" />
        </mxCell>
        <mxCell id="U3oZ_wG4K5lFRN-svRRU-22" value="+ method(type): type" style="text;strokeColor=none;fillColor=none;align=left;verticalAlign=top;spacingLeft=4;spacingRight=4;overflow=hidden;rotatable=0;points=[[0,0.5],[1,0.5]];portConstraint=eastwest;whiteSpace=wrap;html=1;" vertex="1" parent="U3oZ_wG4K5lFRN-svRRU-19">
          <mxGeometry y="60" width="160" height="26" as="geometry" />
        </mxCell>
        <mxCell id="U3oZ_wG4K5lFRN-svRRU-23" value="DAO" style="swimlane;fontStyle=1;align=center;verticalAlign=top;childLayout=stackLayout;horizontal=1;startSize=26;horizontalStack=0;resizeParent=1;resizeParentMax=0;resizeLast=0;collapsible=1;marginBottom=0;whiteSpace=wrap;html=1;fillColor=#dae8fc;strokeColor=#6c8ebf;" vertex="1" parent="1">
          <mxGeometry x="290" y="570" width="160" height="86" as="geometry" />
        </mxCell>
        <mxCell id="U3oZ_wG4K5lFRN-svRRU-24" value="+ field: type" style="text;strokeColor=none;fillColor=none;align=left;verticalAlign=top;spacingLeft=4;spacingRight=4;overflow=hidden;rotatable=0;points=[[0,0.5],[1,0.5]];portConstraint=eastwest;whiteSpace=wrap;html=1;" vertex="1" parent="U3oZ_wG4K5lFRN-svRRU-23">
          <mxGeometry y="26" width="160" height="26" as="geometry" />
        </mxCell>
        <mxCell id="U3oZ_wG4K5lFRN-svRRU-25" value="" style="line;strokeWidth=1;fillColor=none;align=left;verticalAlign=middle;spacingTop=-1;spacingLeft=3;spacingRight=3;rotatable=0;labelPosition=right;points=[];portConstraint=eastwest;strokeColor=inherit;" vertex="1" parent="U3oZ_wG4K5lFRN-svRRU-23">
          <mxGeometry y="52" width="160" height="8" as="geometry" />
        </mxCell>
        <mxCell id="U3oZ_wG4K5lFRN-svRRU-26" value="+ method(type): type" style="text;strokeColor=none;fillColor=none;align=left;verticalAlign=top;spacingLeft=4;spacingRight=4;overflow=hidden;rotatable=0;points=[[0,0.5],[1,0.5]];portConstraint=eastwest;whiteSpace=wrap;html=1;" vertex="1" parent="U3oZ_wG4K5lFRN-svRRU-23">
          <mxGeometry y="60" width="160" height="26" as="geometry" />
        </mxCell>
        <mxCell id="U3oZ_wG4K5lFRN-svRRU-27" value="I-SERVICE" style="swimlane;fontStyle=1;align=center;verticalAlign=top;childLayout=stackLayout;horizontal=1;startSize=26;horizontalStack=0;resizeParent=1;resizeParentMax=0;resizeLast=0;collapsible=1;marginBottom=0;whiteSpace=wrap;html=1;fillColor=#dae8fc;strokeColor=#6c8ebf;" vertex="1" parent="1">
          <mxGeometry x="550" y="570" width="160" height="86" as="geometry" />
        </mxCell>
        <mxCell id="U3oZ_wG4K5lFRN-svRRU-28" value="+ field: type" style="text;strokeColor=none;fillColor=none;align=left;verticalAlign=top;spacingLeft=4;spacingRight=4;overflow=hidden;rotatable=0;points=[[0,0.5],[1,0.5]];portConstraint=eastwest;whiteSpace=wrap;html=1;" vertex="1" parent="U3oZ_wG4K5lFRN-svRRU-27">
          <mxGeometry y="26" width="160" height="26" as="geometry" />
        </mxCell>
        <mxCell id="U3oZ_wG4K5lFRN-svRRU-29" value="" style="line;strokeWidth=1;fillColor=none;align=left;verticalAlign=middle;spacingTop=-1;spacingLeft=3;spacingRight=3;rotatable=0;labelPosition=right;points=[];portConstraint=eastwest;strokeColor=inherit;" vertex="1" parent="U3oZ_wG4K5lFRN-svRRU-27">
          <mxGeometry y="52" width="160" height="8" as="geometry" />
        </mxCell>
        <mxCell id="U3oZ_wG4K5lFRN-svRRU-30" value="+ method(type): type" style="text;strokeColor=none;fillColor=none;align=left;verticalAlign=top;spacingLeft=4;spacingRight=4;overflow=hidden;rotatable=0;points=[[0,0.5],[1,0.5]];portConstraint=eastwest;whiteSpace=wrap;html=1;" vertex="1" parent="U3oZ_wG4K5lFRN-svRRU-27">
          <mxGeometry y="60" width="160" height="26" as="geometry" />
        </mxCell>
        <mxCell id="U3oZ_wG4K5lFRN-svRRU-31" value="" style="endArrow=none;dashed=1;html=1;dashPattern=1 3;strokeWidth=2;rounded=0;" edge="1" parent="1">
          <mxGeometry width="50" height="50" relative="1" as="geometry">
            <mxPoint y="520" as="sourcePoint" />
            <mxPoint x="820" y="520" as="targetPoint" />
          </mxGeometry>
        </mxCell>
        <mxCell id="U3oZ_wG4K5lFRN-svRRU-32" value="&lt;b&gt;SERVICE&lt;/b&gt;" style="text;html=1;align=center;verticalAlign=middle;resizable=0;points=[];autosize=1;strokeColor=#6c8ebf;fillColor=#dae8fc;" vertex="1" parent="1">
          <mxGeometry x="730" y="660" width="80" height="30" as="geometry" />
        </mxCell>
        <mxCell id="U3oZ_wG4K5lFRN-svRRU-33" style="edgeStyle=orthogonalEdgeStyle;rounded=0;orthogonalLoop=1;jettySize=auto;html=1;exitX=1;exitY=0.5;exitDx=0;exitDy=0;entryX=0;entryY=0.5;entryDx=0;entryDy=0;" edge="1" parent="1" source="U3oZ_wG4K5lFRN-svRRU-16" target="U3oZ_wG4K5lFRN-svRRU-20">
          <mxGeometry relative="1" as="geometry" />
        </mxCell>
        <mxCell id="U3oZ_wG4K5lFRN-svRRU-34" value="" style="endArrow=none;dashed=1;html=1;dashPattern=1 3;strokeWidth=2;rounded=0;" edge="1" parent="1">
          <mxGeometry width="50" height="50" relative="1" as="geometry">
            <mxPoint x="4" y="280" as="sourcePoint" />
            <mxPoint x="824" y="280" as="targetPoint" />
          </mxGeometry>
        </mxCell>
        <mxCell id="U3oZ_wG4K5lFRN-svRRU-35" value="&lt;b&gt;INTEGRATION&lt;/b&gt;" style="text;html=1;align=center;verticalAlign=middle;resizable=0;points=[];autosize=1;strokeColor=#6c8ebf;fillColor=#dae8fc;" vertex="1" parent="1">
          <mxGeometry x="640" y="460" width="110" height="30" as="geometry" />
        </mxCell>
        <mxCell id="U3oZ_wG4K5lFRN-svRRU-36" value="Controller" style="swimlane;fontStyle=1;align=center;verticalAlign=top;childLayout=stackLayout;horizontal=1;startSize=26;horizontalStack=0;resizeParent=1;resizeParentMax=0;resizeLast=0;collapsible=1;marginBottom=0;whiteSpace=wrap;html=1;fillColor=#dae8fc;strokeColor=#6c8ebf;" vertex="1" parent="1">
          <mxGeometry x="280" y="340" width="160" height="86" as="geometry" />
        </mxCell>
        <mxCell id="U3oZ_wG4K5lFRN-svRRU-37" value="+ field: type" style="text;strokeColor=none;fillColor=none;align=left;verticalAlign=top;spacingLeft=4;spacingRight=4;overflow=hidden;rotatable=0;points=[[0,0.5],[1,0.5]];portConstraint=eastwest;whiteSpace=wrap;html=1;" vertex="1" parent="U3oZ_wG4K5lFRN-svRRU-36">
          <mxGeometry y="26" width="160" height="26" as="geometry" />
        </mxCell>
        <mxCell id="U3oZ_wG4K5lFRN-svRRU-38" value="" style="line;strokeWidth=1;fillColor=none;align=left;verticalAlign=middle;spacingTop=-1;spacingLeft=3;spacingRight=3;rotatable=0;labelPosition=right;points=[];portConstraint=eastwest;strokeColor=inherit;" vertex="1" parent="U3oZ_wG4K5lFRN-svRRU-36">
          <mxGeometry y="52" width="160" height="8" as="geometry" />
        </mxCell>
        <mxCell id="U3oZ_wG4K5lFRN-svRRU-39" value="+ method(type): type" style="text;strokeColor=none;fillColor=none;align=left;verticalAlign=top;spacingLeft=4;spacingRight=4;overflow=hidden;rotatable=0;points=[[0,0.5],[1,0.5]];portConstraint=eastwest;whiteSpace=wrap;html=1;" vertex="1" parent="U3oZ_wG4K5lFRN-svRRU-36">
          <mxGeometry y="60" width="160" height="26" as="geometry" />
        </mxCell>
        <mxCell id="U3oZ_wG4K5lFRN-svRRU-47" value="" style="edgeStyle=orthogonalEdgeStyle;rounded=0;orthogonalLoop=1;jettySize=auto;html=1;" edge="1" parent="1" target="U3oZ_wG4K5lFRN-svRRU-57">
          <mxGeometry relative="1" as="geometry">
            <mxPoint x="320" y="120" as="sourcePoint" />
            <mxPoint x="211.10999999999967" y="195" as="targetPoint" />
          </mxGeometry>
        </mxCell>
        <mxCell id="U3oZ_wG4K5lFRN-svRRU-41" style="edgeStyle=orthogonalEdgeStyle;rounded=0;orthogonalLoop=1;jettySize=auto;html=1;entryX=0.463;entryY=0;entryDx=0;entryDy=0;entryPerimeter=0;" edge="1" parent="1" target="U3oZ_wG4K5lFRN-svRRU-36">
          <mxGeometry relative="1" as="geometry">
            <mxPoint x="380" y="170" as="sourcePoint" />
          </mxGeometry>
        </mxCell>
        <mxCell id="U3oZ_wG4K5lFRN-svRRU-42" style="edgeStyle=orthogonalEdgeStyle;rounded=0;orthogonalLoop=1;jettySize=auto;html=1;exitX=1;exitY=0.5;exitDx=0;exitDy=0;" edge="1" parent="1" source="U3oZ_wG4K5lFRN-svRRU-39" target="U3oZ_wG4K5lFRN-svRRU-23">
          <mxGeometry relative="1" as="geometry" />
        </mxCell>
        <mxCell id="U3oZ_wG4K5lFRN-svRRU-43" style="edgeStyle=orthogonalEdgeStyle;rounded=0;orthogonalLoop=1;jettySize=auto;html=1;exitX=1;exitY=0.5;exitDx=0;exitDy=0;entryX=0.5;entryY=0;entryDx=0;entryDy=0;" edge="1" parent="1" source="U3oZ_wG4K5lFRN-svRRU-26" target="U3oZ_wG4K5lFRN-svRRU-15">
          <mxGeometry relative="1" as="geometry" />
        </mxCell>
        <mxCell id="U3oZ_wG4K5lFRN-svRRU-44" style="edgeStyle=orthogonalEdgeStyle;rounded=0;orthogonalLoop=1;jettySize=auto;html=1;exitX=0;exitY=0.5;exitDx=0;exitDy=0;entryX=0.5;entryY=0;entryDx=0;entryDy=0;entryPerimeter=0;" edge="1" parent="1" source="U3oZ_wG4K5lFRN-svRRU-18" target="U3oZ_wG4K5lFRN-svRRU-1">
          <mxGeometry relative="1" as="geometry" />
        </mxCell>
        <mxCell id="U3oZ_wG4K5lFRN-svRRU-45" value="" style="image;aspect=fixed;perimeter=ellipsePerimeter;html=1;align=center;shadow=0;dashed=0;spacingTop=3;image=img/lib/active_directory/generic_server.svg;" vertex="1" parent="1">
          <mxGeometry y="350" width="257.6" height="460" as="geometry" />
        </mxCell>
        <mxCell id="U3oZ_wG4K5lFRN-svRRU-48" style="edgeStyle=orthogonalEdgeStyle;rounded=0;orthogonalLoop=1;jettySize=auto;html=1;" edge="1" parent="1">
          <mxGeometry relative="1" as="geometry">
            <mxPoint x="40" y="330" as="targetPoint" />
            <mxPoint x="100" y="195" as="sourcePoint" />
          </mxGeometry>
        </mxCell>
        <mxCell id="U3oZ_wG4K5lFRN-svRRU-49" value="&lt;b&gt;&lt;font style=&quot;font-size: 21px;&quot;&gt;SERVER&lt;/font&gt;&lt;/b&gt;" style="text;html=1;align=center;verticalAlign=middle;resizable=0;points=[];autosize=1;strokeColor=#6c8ebf;fillColor=#dae8fc;" vertex="1" parent="1">
          <mxGeometry x="20" y="330" width="110" height="40" as="geometry" />
        </mxCell>
        <mxCell id="U3oZ_wG4K5lFRN-svRRU-50" value="&lt;span style=&quot;font-size: 21px;&quot;&gt;&lt;b&gt;CLIENT&lt;/b&gt;&lt;/span&gt;" style="text;html=1;align=center;verticalAlign=middle;resizable=0;points=[];autosize=1;strokeColor=#d79b00;fillColor=#ffe6cc;" vertex="1" parent="1">
          <mxGeometry x="65" y="40" width="100" height="40" as="geometry" />
        </mxCell>
        <mxCell id="U3oZ_wG4K5lFRN-svRRU-53" value="" style="endArrow=classic;html=1;rounded=0;" edge="1" parent="1" target="U3oZ_wG4K5lFRN-svRRU-55">
          <mxGeometry width="50" height="50" relative="1" as="geometry">
            <mxPoint x="250" y="260" as="sourcePoint" />
            <mxPoint x="317.9699999999998" y="214.01617" as="targetPoint" />
          </mxGeometry>
        </mxCell>
        <mxCell id="U3oZ_wG4K5lFRN-svRRU-55" value="" style="verticalAlign=top;verticalLabelPosition=bottom;labelPosition=center;align=center;html=1;outlineConnect=0;fillColor=#ffe6cc;strokeColor=#d79b00;gradientDirection=north;strokeWidth=2;shape=mxgraph.networks.pc;" vertex="1" parent="1">
          <mxGeometry x="330" y="90" width="100" height="70" as="geometry" />
        </mxCell>
        <mxCell id="U3oZ_wG4K5lFRN-svRRU-57" value="" style="html=1;verticalLabelPosition=bottom;align=center;labelBackgroundColor=#ffffff;verticalAlign=top;strokeWidth=2;strokeColor=#d79b00;shadow=0;dashed=0;shape=mxgraph.ios7.icons.cloud;fillColor=#ffe6cc;" vertex="1" parent="1">
          <mxGeometry x="110" y="160" width="100" height="60" as="geometry" />
        </mxCell>
        <mxCell id="U3oZ_wG4K5lFRN-svRRU-51" value="" style="dashed=0;outlineConnect=0;html=1;align=center;labelPosition=center;verticalLabelPosition=bottom;verticalAlign=top;shape=mxgraph.weblogos.html5" vertex="1" parent="1">
          <mxGeometry x="210" y="260" width="50" height="70" as="geometry" />
        </mxCell>
        <mxCell id="U3oZ_wG4K5lFRN-svRRU-59" value="RESTController" style="swimlane;fontStyle=1;align=center;verticalAlign=top;childLayout=stackLayout;horizontal=1;startSize=26;horizontalStack=0;resizeParent=1;resizeParentMax=0;resizeLast=0;collapsible=1;marginBottom=0;whiteSpace=wrap;html=1;fillColor=#dae8fc;strokeColor=#6c8ebf;" vertex="1" parent="1">
          <mxGeometry x="530" y="340" width="160" height="86" as="geometry" />
        </mxCell>
        <mxCell id="U3oZ_wG4K5lFRN-svRRU-60" value="+ field: type" style="text;strokeColor=none;fillColor=none;align=left;verticalAlign=top;spacingLeft=4;spacingRight=4;overflow=hidden;rotatable=0;points=[[0,0.5],[1,0.5]];portConstraint=eastwest;whiteSpace=wrap;html=1;" vertex="1" parent="U3oZ_wG4K5lFRN-svRRU-59">
          <mxGeometry y="26" width="160" height="26" as="geometry" />
        </mxCell>
        <mxCell id="U3oZ_wG4K5lFRN-svRRU-61" value="" style="line;strokeWidth=1;fillColor=none;align=left;verticalAlign=middle;spacingTop=-1;spacingLeft=3;spacingRight=3;rotatable=0;labelPosition=right;points=[];portConstraint=eastwest;strokeColor=inherit;" vertex="1" parent="U3oZ_wG4K5lFRN-svRRU-59">
          <mxGeometry y="52" width="160" height="8" as="geometry" />
        </mxCell>
        <mxCell id="U3oZ_wG4K5lFRN-svRRU-62" value="+ method(type): type" style="text;strokeColor=none;fillColor=none;align=left;verticalAlign=top;spacingLeft=4;spacingRight=4;overflow=hidden;rotatable=0;points=[[0,0.5],[1,0.5]];portConstraint=eastwest;whiteSpace=wrap;html=1;" vertex="1" parent="U3oZ_wG4K5lFRN-svRRU-59">
          <mxGeometry y="60" width="160" height="26" as="geometry" />
        </mxCell>
        <mxCell id="U3oZ_wG4K5lFRN-svRRU-64" value="" style="dashed=0;outlineConnect=0;html=1;align=center;labelPosition=center;verticalLabelPosition=bottom;verticalAlign=top;shape=mxgraph.weblogos.json" vertex="1" parent="1">
          <mxGeometry x="700" y="350" width="50" height="60" as="geometry" />
        </mxCell>
        <mxCell id="U3oZ_wG4K5lFRN-svRRU-65" value="&lt;b&gt;PRESENTATION&lt;/b&gt;" style="text;html=1;align=center;verticalAlign=middle;resizable=0;points=[];autosize=1;strokeColor=#6c8ebf;fillColor=#dae8fc;" vertex="1" parent="1">
          <mxGeometry x="270" y="460" width="120" height="30" as="geometry" />
        </mxCell>
        <mxCell id="U3oZ_wG4K5lFRN-svRRU-66" value="" style="endArrow=none;html=1;rounded=0;" edge="1" parent="1" source="U3oZ_wG4K5lFRN-svRRU-45" target="U3oZ_wG4K5lFRN-svRRU-51">
          <mxGeometry width="50" height="50" relative="1" as="geometry">
            <mxPoint x="390" y="320" as="sourcePoint" />
            <mxPoint x="440" y="270" as="targetPoint" />
          </mxGeometry>
        </mxCell>
        <mxCell id="U3oZ_wG4K5lFRN-svRRU-67" value="" style="shape=image;html=1;verticalAlign=top;verticalLabelPosition=bottom;labelBackgroundColor=#ffffff;imageAspect=0;aspect=fixed;image=https://cdn1.iconfinder.com/data/icons/ionicons-fill-vol-2/512/logo-javascript-128.png" vertex="1" parent="1">
          <mxGeometry x="450" y="80" width="70" height="70" as="geometry" />
        </mxCell>
        <mxCell id="U3oZ_wG4K5lFRN-svRRU-68" value="" style="aspect=fixed;sketch=0;html=1;dashed=0;whitespace=wrap;fillColor=#2875E2;strokeColor=#ffffff;points=[[0.005,0.63,0],[0.1,0.2,0],[0.9,0.2,0],[0.5,0,0],[0.995,0.63,0],[0.72,0.99,0],[0.5,1,0],[0.28,0.99,0]];shape=mxgraph.kubernetes.icon2;prIcon=api" vertex="1" parent="1">
          <mxGeometry x="760" y="292" width="50" height="48" as="geometry" />
        </mxCell>
        <mxCell id="U3oZ_wG4K5lFRN-svRRU-69" value="API" style="text;html=1;align=center;verticalAlign=middle;resizable=0;points=[];autosize=1;strokeColor=none;fillColor=none;" vertex="1" parent="1">
          <mxGeometry x="710" y="300" width="40" height="30" as="geometry" />
        </mxCell>
        <mxCell id="U3oZ_wG4K5lFRN-svRRU-70" value="" style="endArrow=none;dashed=1;html=1;dashPattern=1 3;strokeWidth=2;rounded=0;" edge="1" parent="1">
          <mxGeometry width="50" height="50" relative="1" as="geometry">
            <mxPoint x="500" y="520" as="sourcePoint" />
            <mxPoint x="500" y="280" as="targetPoint" />
          </mxGeometry>
        </mxCell>
      </root>
    </mxGraphModel>
  </diagram>
</mxfile>
